# Blender 4.5.1 LTS
# www.blender.org
mtllib cornellbox.mtl
o tallbox
v 0.040000 1.199489 -0.090000
v -0.140000 1.199489 -0.670000
v -0.710000 1.199489 -0.490000
v -0.530000 1.199489 0.090000
v -0.710000 -0.000511 -0.490000
v -0.530000 -0.000511 0.090000
v -0.140000 -0.000511 -0.670000
v 0.040000 -0.000511 -0.090000
vn -0.0000 1.0000 -0.0000
vn -0.9551 -0.0000 0.2964
vn -0.3011 -0.0000 -0.9536
vn 0.9551 -0.0000 -0.2964
vn 0.3011 -0.0000 0.9536
vn -0.0000 -1.0000 -0.0000
vt 0.325040 0.167470
vt 0.295900 0.261380
vt 0.203610 0.232240
vt 0.232760 0.138330
vt 0.106040 0.208840
vt 0.009950 0.208840
vt 0.009950 0.010030
vt 0.106040 0.010030
vt 0.201430 0.407870
vt 0.106920 0.407870
vt 0.106920 0.208900
vt 0.201430 0.208900
vt 0.106040 0.407790
vt 0.009950 0.407790
vt 0.009950 0.208980
vt 0.106040 0.208980
vt 0.201430 0.208910
vt 0.106920 0.208910
vt 0.106920 0.009950
vt 0.201430 0.009950
vt 0.325040 0.040870
vt 0.203610 0.105640
vt 0.295900 0.134780
vt 0.232760 0.011730
s 0
usemtl tallBox
f 1/1/1 2/2/1 3/3/1
f 3/3/1 4/4/1 1/1/1
f 4/5/2 3/6/2 5/7/2
f 5/7/2 6/8/2 4/5/2
f 3/9/3 2/10/3 7/11/3
f 7/11/3 5/12/3 3/9/3
f 2/13/4 1/14/4 8/15/4
f 8/15/4 7/16/4 2/13/4
f 1/17/5 4/18/5 6/19/5
f 6/19/5 8/20/5 1/17/5
f 8/21/6 5/22/6 7/23/6
f 5/22/6 8/21/6 6/24/6
o ceiling
v -1.009999 2.000000 -1.009962
v 1.009999 2.000000 -1.009962
v 1.009999 2.000000 1.009961
v -1.009999 2.000000 1.009961
v -1.009999 2.010000 -1.009962
v 1.009999 2.010000 -1.009962
v 1.009999 2.010000 1.009961
v -1.009999 2.010000 1.009961
vn -0.0000 -1.0000 -0.0000
vn -0.0000 1.0000 -0.0000
vn -0.0000 -0.0000 -1.0000
vn 1.0000 -0.0000 -0.0000
vn -0.0000 -0.0000 1.0000
vn -1.0000 -0.0000 -0.0000
vt 0.329370 0.338090
vt 0.653190 0.338090
vt 0.653190 0.661910
vt 0.329370 0.661910
s 0
usemtl ceiling
f 9/25/7 10/26/7 11/27/7
f 11/27/7 12/28/7 9/25/7
f 13/25/8 15/27/8 14/26/8
f 15/27/8 13/25/8 16/28/8
f 10/26/9 9/25/9 13/25/9 14/26/9
f 11/27/10 10/26/10 14/26/10 15/27/10
f 12/28/11 11/27/11 15/27/11 16/28/11
f 9/25/12 12/28/12 16/28/12 13/25/12
o floor
v 1.010049 0.000000 1.000033
v 1.010049 -0.000000 -1.000033
v -1.010049 -0.000000 -1.000033
v -1.010049 0.000000 1.000033
v 1.010049 -0.010000 1.000033
v 1.010049 -0.010000 -1.000033
v -1.010049 -0.010000 -1.000033
v -1.010049 -0.010000 1.000033
vn -0.0000 1.0000 -0.0000
vn -0.0000 -1.0000 -0.0000
vn 1.0000 -0.0000 -0.0000
vn -0.0000 -0.0000 -1.0000
vn -1.0000 -0.0000 -0.0000
vn -0.0000 -0.0000 1.0000
vt 0.981330 0.338090
vt 0.981330 0.661910
vt 0.657510 0.661910
vt 0.657510 0.338090
s 0
usemtl floor
f 17/29/13 18/30/13 19/31/13
f 19/31/13 20/32/13 17/29/13
f 21/29/14 23/31/14 22/30/14
f 23/31/14 21/29/14 24/32/14
f 18/30/15 17/29/15 21/29/15 22/30/15
f 19/31/16 18/30/16 22/30/16 23/31/16
f 20/32/17 19/31/17 23/31/17 24/32/17
f 17/29/18 20/32/18 24/32/18 21/29/18
o back
v 1.000000 -0.000000 -1.000000
v 1.000000 2.000000 -1.000000
v -1.000000 2.000000 -1.000000
v -1.000000 -0.000000 -1.000000
v 1.000000 -0.000000 -1.010000
v 1.000000 2.000000 -1.010000
v -1.000000 2.000000 -1.010000
v -1.000000 -0.000000 -1.010000
vn -0.0000 -0.0000 1.0000
vn -0.0000 -0.0000 -1.0000
vn 1.0000 -0.0000 -0.0000
vn -0.0000 1.0000 -0.0000
vn -1.0000 -0.0000 -0.0000
vn -0.0000 -1.0000 -0.0000
vt 0.653190 0.666230
vt 0.653190 0.990050
vt 0.329370 0.990050
vt 0.329370 0.666230
s 0
usemtl frontWall
f 25/33/19 26/34/19 27/35/19
f 27/35/19 28/36/19 25/33/19
f 29/33/20 31/35/20 30/34/20
f 31/35/20 29/33/20 32/36/20
f 26/34/21 25/33/21 29/33/21 30/34/21
f 27/35/22 26/34/22 30/34/22 31/35/22
f 28/36/23 27/35/23 31/35/23 32/36/23
f 25/33/24 28/36/24 32/36/24 29/33/24
o leftwall
v -0.999950 -0.009999 -1.009958
v -0.999950 2.009999 -1.009958
v -0.999950 2.009999 1.009957
v -0.999950 -0.009999 1.009958
v -1.010050 -0.009999 -1.009958
v -1.010050 2.009999 -1.009958
v -1.010050 2.009999 1.009957
v -1.010050 -0.009999 1.009958
vn 1.0000 -0.0000 -0.0000
vn -1.0000 -0.0000 -0.0000
vn -0.0000 -0.0000 -1.0000
vn -0.0000 1.0000 -0.0000
vn -0.0000 -0.0000 1.0000
vn -0.0000 -1.0000 -0.0000
vt 0.981330 0.009950
vt 0.981330 0.333770
vt 0.657510 0.333770
vt 0.657510 0.009950
s 0
usemtl leftWall
f 33/37/25 34/38/25 35/39/25
f 35/39/25 36/40/25 33/37/25
f 37/37/26 39/39/26 38/38/26
f 39/39/26 37/37/26 40/40/26
f 34/38/27 33/37/27 37/37/27 38/38/27
f 35/39/28 34/38/28 38/38/28 39/39/28
f 36/40/29 35/39/29 39/39/29 40/40/29
f 33/37/30 36/40/30 40/40/30 37/37/30
o light
v -0.240000 1.999000 -0.220000
v 0.230000 1.999000 -0.220000
v 0.230000 1.999000 0.220000
v -0.240000 1.999000 0.220000
v -0.240000 2.009000 -0.220000
v 0.230000 2.009000 -0.220000
v 0.230000 2.009000 0.220000
v -0.240000 2.009000 0.220000
vn -0.0000 -1.0000 -0.0000
vn -0.0000 1.0000 -0.0000
vn -0.0000 -0.0000 -1.0000
vn 1.0000 -0.0000 -0.0000
vn -0.0000 -0.0000 1.0000
vn -1.0000 -0.0000 -0.0000
vt 0.657510 0.666230
vt 0.733610 0.666230
vt 0.733610 0.727760
vt 0.657510 0.727760
s 0
usemtl light
f 41/41/31 42/42/31 43/43/31
f 43/43/31 44/44/31 41/41/31
f 45/41/32 47/43/32 46/42/32
f 47/43/32 45/41/32 48/44/32
f 42/42/33 41/41/33 45/41/33 46/42/33
f 43/43/34 42/42/34 46/42/34 47/43/34
f 44/44/35 43/43/35 47/43/35 48/44/35
f 41/41/36 44/44/36 48/44/36 45/41/36
o rightwall
v 1.000000 -0.009999 1.009968
v 1.000000 2.009999 1.009968
v 1.000000 2.009999 -1.009968
v 1.000000 -0.009999 -1.009968
v 1.010000 -0.009999 1.009968
v 1.010000 2.009999 1.009968
v 1.010000 2.009999 -1.009968
v 1.010000 -0.009999 -1.009968
vn -1.0000 -0.0000 -0.0000
vn 1.0000 -0.0000 -0.0000
vn -0.0000 -0.0000 1.0000
vn -0.0000 1.0000 -0.0000
vn -0.0000 -0.0000 -1.0000
vn -0.0000 -1.0000 -0.0000
vt 0.653190 0.009950
vt 0.653190 0.333770
vt 0.329370 0.333770
vt 0.329370 0.009950
s 0
usemtl rightWall
f 49/45/37 50/46/37 51/47/37
f 51/47/37 52/48/37 49/45/37
f 53/45/38 55/47/38 54/46/38
f 55/47/38 53/45/38 56/48/38
f 50/46/39 49/45/39 53/45/39 54/46/39
f 51/47/40 50/46/40 54/46/40 55/47/40
f 52/48/41 51/47/41 55/47/41 56/48/41
f 49/45/42 52/48/42 56/48/42 53/45/42
o shortbox
v 0.700000 0.599506 0.170000
v 0.130000 0.599506 -0.000000
v -0.050000 0.599506 0.570000
v 0.530000 0.599506 0.750000
v 0.130000 -0.000494 0.000000
v -0.050000 -0.000494 0.570000
v 0.530000 -0.000494 0.750000
v 0.700000 -0.000494 0.170000
vn -0.0000 1.0000 -0.0000
vn -0.9536 -0.0000 -0.3011
vn -0.2964 -0.0000 0.9551
vn 0.9596 -0.0000 0.2813
vn 0.2858 -0.0000 -0.9583
vn -0.0000 -1.0000 -0.0000
vt 0.131380 0.631820
vt 0.039090 0.659350
vt 0.009950 0.567060
vt 0.103860 0.537910
vt 0.322620 0.711290
vt 0.228110 0.711290
vt 0.228110 0.611810
vt 0.322620 0.611810
vt 0.229280 0.611360
vt 0.133190 0.611360
vt 0.133190 0.511960
vt 0.229280 0.511960
vt 0.229160 0.511360
vt 0.133300 0.511360
vt 0.133300 0.412190
vt 0.229160 0.412190
vt 0.227550 0.711170
vt 0.133270 0.711170
vt 0.133270 0.611930
vt 0.227550 0.611930
vt 0.131380 0.507290
vt 0.009950 0.442530
vt 0.039090 0.534810
vt 0.103860 0.413380
s 0
usemtl shortBox
f 57/49/43 58/50/43 59/51/43
f 59/51/43 60/52/43 57/49/43
f 59/53/44 58/54/44 61/55/44
f 61/55/44 62/56/44 59/53/44
f 60/57/45 59/58/45 62/59/45
f 62/59/45 63/60/45 60/57/45
f 57/61/46 60/62/46 63/63/46
f 63/63/46 64/64/46 57/61/46
f 58/65/47 57/66/47 64/67/47
f 64/67/47 61/68/47 58/65/47
f 64/69/48 62/70/48 61/71/48
f 62/70/48 64/69/48 63/72/48
