# Blender 4.5.0
# www.blender.org
mtllib cornellbox.mtl
o ceiling
v -1.009999 2.000000 -1.009962
v 1.009999 2.000000 -1.009962
v 1.009999 2.000000 1.009961
v -1.009999 2.000000 1.009961
v -1.009999 2.010000 -1.009962
v 1.009999 2.010000 -1.009962
v 1.009999 2.010000 1.009961
v -1.009999 2.010000 1.009961
vn -0.0000 -1.0000 -0.0000
vn -0.0000 1.0000 -0.0000
vn -0.0000 -0.0000 -1.0000
vn 1.0000 -0.0000 -0.0000
vn -0.0000 -0.0000 1.0000
vn -1.0000 -0.0000 -0.0000
vt 0.329370 0.338090
vt 0.653190 0.338090
vt 0.653190 0.661910
vt 0.329370 0.661910
s 0
usemtl ceiling
f 1/1/1 2/2/1 3/3/1
f 3/3/1 4/4/1 1/1/1
f 5/1/2 7/3/2 6/2/2
f 7/3/2 5/1/2 8/4/2
f 2/2/3 1/1/3 5/1/3 6/2/3
f 3/3/4 2/2/4 6/2/4 7/3/4
f 4/4/5 3/3/5 7/3/5 8/4/5
f 1/1/6 4/4/6 8/4/6 5/1/6
o floor
v 1.010049 0.000000 1.000033
v 1.010049 -0.000000 -1.000033
v -1.010049 -0.000000 -1.000033
v -1.010049 0.000000 1.000033
v 1.010049 -0.010000 1.000033
v 1.010049 -0.010000 -1.000033
v -1.010049 -0.010000 -1.000033
v -1.010049 -0.010000 1.000033
vn -0.0000 1.0000 -0.0000
vn -0.0000 -1.0000 -0.0000
vn 1.0000 -0.0000 -0.0000
vn -0.0000 -0.0000 -1.0000
vn -1.0000 -0.0000 -0.0000
vn -0.0000 -0.0000 1.0000
vt 0.981330 0.338090
vt 0.981330 0.661910
vt 0.657510 0.661910
vt 0.657510 0.338090
s 0
usemtl floor
f 9/5/7 10/6/7 11/7/7
f 11/7/7 12/8/7 9/5/7
f 13/5/8 15/7/8 14/6/8
f 15/7/8 13/5/8 16/8/8
f 10/6/9 9/5/9 13/5/9 14/6/9
f 11/7/10 10/6/10 14/6/10 15/7/10
f 12/8/11 11/7/11 15/7/11 16/8/11
f 9/5/12 12/8/12 16/8/12 13/5/12
o back
v 1.000000 -0.000000 -1.000000
v 1.000000 2.000000 -1.000000
v -1.000000 2.000000 -1.000000
v -1.000000 -0.000000 -1.000000
v 1.000000 -0.000000 -1.010000
v 1.000000 2.000000 -1.010000
v -1.000000 2.000000 -1.010000
v -1.000000 -0.000000 -1.010000
vn -0.0000 -0.0000 1.0000
vn -0.0000 -0.0000 -1.0000
vn 1.0000 -0.0000 -0.0000
vn -0.0000 1.0000 -0.0000
vn -1.0000 -0.0000 -0.0000
vn -0.0000 -1.0000 -0.0000
vt 0.653190 0.666230
vt 0.653190 0.990050
vt 0.329370 0.990050
vt 0.329370 0.666230
s 0
usemtl frontWall
f 17/9/13 18/10/13 19/11/13
f 19/11/13 20/12/13 17/9/13
f 21/9/14 23/11/14 22/10/14
f 23/11/14 21/9/14 24/12/14
f 18/10/15 17/9/15 21/9/15 22/10/15
f 19/11/16 18/10/16 22/10/16 23/11/16
f 20/12/17 19/11/17 23/11/17 24/12/17
f 17/9/18 20/12/18 24/12/18 21/9/18
o leftwall
v -0.999950 -0.009999 -1.009958
v -0.999950 2.009999 -1.009958
v -0.999950 2.009999 1.009957
v -0.999950 -0.009999 1.009958
v -1.010050 -0.009999 -1.009958
v -1.010050 2.009999 -1.009958
v -1.010050 2.009999 1.009957
v -1.010050 -0.009999 1.009958
vn 1.0000 -0.0000 -0.0000
vn -1.0000 -0.0000 -0.0000
vn -0.0000 -0.0000 -1.0000
vn -0.0000 1.0000 -0.0000
vn -0.0000 -0.0000 1.0000
vn -0.0000 -1.0000 -0.0000
vt 0.981330 0.009950
vt 0.981330 0.333770
vt 0.657510 0.333770
vt 0.657510 0.009950
s 0
usemtl leftWall
f 25/13/19 26/14/19 27/15/19
f 27/15/19 28/16/19 25/13/19
f 29/13/20 31/15/20 30/14/20
f 31/15/20 29/13/20 32/16/20
f 26/14/21 25/13/21 29/13/21 30/14/21
f 27/15/22 26/14/22 30/14/22 31/15/22
f 28/16/23 27/15/23 31/15/23 32/16/23
f 25/13/24 28/16/24 32/16/24 29/13/24
o light
v -0.240000 1.999000 -0.220000
v 0.230000 1.999000 -0.220000
v 0.230000 1.999000 0.220000
v -0.240000 1.999000 0.220000
v -0.240000 2.009000 -0.220000
v 0.230000 2.009000 -0.220000
v 0.230000 2.009000 0.220000
v -0.240000 2.009000 0.220000
vn -0.0000 -1.0000 -0.0000
vn -0.0000 1.0000 -0.0000
vn -0.0000 -0.0000 -1.0000
vn 1.0000 -0.0000 -0.0000
vn -0.0000 -0.0000 1.0000
vn -1.0000 -0.0000 -0.0000
vt 0.657510 0.666230
vt 0.733610 0.666230
vt 0.733610 0.727760
vt 0.657510 0.727760
s 0
usemtl light
f 33/17/25 34/18/25 35/19/25
f 35/19/25 36/20/25 33/17/25
f 37/17/26 39/19/26 38/18/26
f 39/19/26 37/17/26 40/20/26
f 34/18/27 33/17/27 37/17/27 38/18/27
f 35/19/28 34/18/28 38/18/28 39/19/28
f 36/20/29 35/19/29 39/19/29 40/20/29
f 33/17/30 36/20/30 40/20/30 37/17/30
o rightwall
v 1.000000 -0.009999 1.009968
v 1.000000 2.009999 1.009968
v 1.000000 2.009999 -1.009968
v 1.000000 -0.009999 -1.009968
v 1.010000 -0.009999 1.009968
v 1.010000 2.009999 1.009968
v 1.010000 2.009999 -1.009968
v 1.010000 -0.009999 -1.009968
vn -1.0000 -0.0000 -0.0000
vn 1.0000 -0.0000 -0.0000
vn -0.0000 -0.0000 1.0000
vn -0.0000 1.0000 -0.0000
vn -0.0000 -0.0000 -1.0000
vn -0.0000 -1.0000 -0.0000
vt 0.653190 0.009950
vt 0.653190 0.333770
vt 0.329370 0.333770
vt 0.329370 0.009950
s 0
usemtl rightWall
f 41/21/31 42/22/31 43/23/31
f 43/23/31 44/24/31 41/21/31
f 45/21/32 47/23/32 46/22/32
f 47/23/32 45/21/32 48/24/32
f 42/22/33 41/21/33 45/21/33 46/22/33
f 43/23/34 42/22/34 46/22/34 47/23/34
f 44/24/35 43/23/35 47/23/35 48/24/35
f 41/21/36 44/24/36 48/24/36 45/21/36
o shortbox
v 0.700000 0.599506 0.170000
v 0.130000 0.599506 -0.000000
v -0.050000 0.599506 0.570000
v 0.530000 0.599506 0.750000
v 0.130000 -0.000494 0.000000
v -0.050000 -0.000494 0.570000
v 0.530000 -0.000494 0.750000
v 0.700000 -0.000494 0.170000
vn -0.0000 1.0000 -0.0000
vn -0.9536 -0.0000 -0.3011
vn -0.2964 -0.0000 0.9551
vn 0.9596 -0.0000 0.2813
vn 0.2858 -0.0000 -0.9583
vn -0.0000 -1.0000 -0.0000
vt 0.131380 0.631820
vt 0.039090 0.659350
vt 0.009950 0.567060
vt 0.103860 0.537910
vt 0.322620 0.711290
vt 0.228110 0.711290
vt 0.228110 0.611810
vt 0.322620 0.611810
vt 0.229280 0.611360
vt 0.133190 0.611360
vt 0.133190 0.511960
vt 0.229280 0.511960
vt 0.229160 0.511360
vt 0.133300 0.511360
vt 0.133300 0.412190
vt 0.229160 0.412190
vt 0.227550 0.711170
vt 0.133270 0.711170
vt 0.133270 0.611930
vt 0.227550 0.611930
vt 0.131380 0.507290
vt 0.009950 0.442530
vt 0.039090 0.534810
vt 0.103860 0.413380
s 0
usemtl shortBox
f 49/25/37 50/26/37 51/27/37
f 51/27/37 52/28/37 49/25/37
f 51/29/38 50/30/38 53/31/38
f 53/31/38 54/32/38 51/29/38
f 52/33/39 51/34/39 54/35/39
f 54/35/39 55/36/39 52/33/39
f 49/37/40 52/38/40 55/39/40
f 55/39/40 56/40/40 49/37/40
f 50/41/41 49/42/41 56/43/41
f 56/43/41 53/44/41 50/41/41
f 56/45/42 54/46/42 53/47/42
f 54/46/42 56/45/42 55/48/42
