# Blender 4.0.2
# www.blender.org
mtllib color.mtl
g Cube_Mesh
v -1.035355 -1.035355 1.000000
v -1.035355 1.035355 1.000000
v -1.028867 -1.028867 -1.028867
v -1.028867 1.028867 -1.028867
v 1.035355 -1.035355 1.000000
v 1.035355 1.035355 1.000000
v 1.028867 -1.028867 -1.028867
v 1.028867 1.028867 -1.028867
v -1.000000 -1.000000 1.000000
v -1.000000 1.000000 1.000000
v -1.000000 -1.000000 -1.000000
v -1.000000 1.000000 -1.000000
v 1.000000 -1.000000 1.000000
v 1.000000 1.000000 1.000000
v 1.000000 -1.000000 -1.000000
v 1.000000 1.000000 -1.000000
v 1.000000 -1.000000 1.000000
v 1.000000 1.000000 1.000000
v 1.000000 -1.000000 -1.000000
v 1.000000 1.000000 -1.000000
vn -1.0000 -0.0000 -0.0032
vn -0.0000 -0.0000 -1.0000
vn 1.0000 -0.0000 -0.0032
vn -0.0000 -1.0000 -0.0032
vn -0.0000 1.0000 -0.0032
vn 1.0000 -0.0000 -0.0000
vn -0.0000 -0.0000 1.0000
vn -0.0000 1.0000 -0.0000
vn -1.0000 -0.0000 -0.0000
vt 0.979703 0.999901
vt 0.000099 0.003231
vt 0.979703 0.000099
vt 0.000100 0.000100
vt 0.999900 0.999900
vt 0.000100 0.999900
vt 0.979703 0.996769
vt 0.000099 0.000099
vt 0.979703 0.003231
vt 0.000099 0.003232
vt 0.979703 0.999901
vt 0.000099 0.996769
vt 0.979703 0.996768
vt 0.000099 0.000099
vt 0.979703 0.003231
vt 0.999900 0.999900
vt 0.000100 0.000100
vt 0.000100 0.999900
vt 0.999900 0.000100
vt 0.000100 0.999900
vt 0.999900 0.999900
vt 0.000100 0.999900
vt 0.999900 0.000100
vt 0.999900 0.999900
vt 0.375000 0.000000
vt 0.625000 0.000000
vt 0.625000 0.750000
vt 0.375000 0.750000
vt 0.125000 0.750000
vt 0.875000 0.750000
vt 0.000100 0.000100
vt 0.999900 0.999900
vt 0.999900 0.000100
vt 0.000099 0.996769
vt 0.999900 0.000100
vt 0.000099 0.999901
vt 0.979703 0.000099
vt 0.000099 0.999901
vt 0.999900 0.000100
vt 0.000100 0.000100
vt 0.000100 0.000100
vt 0.000100 0.999900
s 0
g Cube_main
usemtl main
f 2/1/1 3/2/1 1/3/1
f 4/4/2 7/5/2 3/6/2
f 8/7/3 5/8/3 7/9/3
f 7/10/4 1/11/4 3/12/4
f 4/13/5 6/14/5 8/15/5
f 11/16/6 10/17/6 9/18/6
f 15/19/7 12/20/7 11/21/7
f 9/22/8 15/23/8 11/24/8
f 1/25/7 10/26/7 2/26/7
f 6/27/7 13/28/7 5/28/7
f 5/28/7 9/29/7 1/29/7
f 2/30/7 14/27/7 6/27/7
f 17/31/9 20/32/9 19/33/9
f 2/1/1 4/34/1 3/2/1
f 4/4/2 8/35/2 7/5/2
f 8/7/3 6/36/3 5/8/3
f 7/10/4 5/37/4 1/11/4
f 4/13/5 2/38/5 6/14/5
f 11/16/6 12/39/6 10/17/6
f 15/19/7 16/40/7 12/20/7
f 9/22/8 13/41/8 15/23/8
f 1/25/7 9/25/7 10/26/7
f 6/27/7 14/27/7 13/28/7
f 5/28/7 13/28/7 9/29/7
f 2/30/7 10/30/7 14/27/7
f 17/31/9 18/42/9 20/32/9
g Ceil_Mesh
v -1.000000 1.000000 1.000000
v -1.000000 1.000000 -1.000000
v 1.000000 1.000000 1.000000
v 1.000000 1.000000 -1.000000
vn -0.0000 -1.0000 -0.0000
vt 0.625000 0.750000
vt 0.875000 0.500000
vt 0.625000 0.500000
vt 0.875000 0.750000
s 0
g Ceil_ceil
usemtl ceil
f 23/43/10 22/44/10 24/45/10
f 23/43/10 21/46/10 22/44/10
